<mxfile host="app.diagrams.net" modified="2021-12-01T14:26:06.301Z" agent="5.0 (Windows NT 10.0; Win64; x64) AppleWebKit/537.36 (KHTML, like Gecko) Chrome/96.0.4664.45 Safari/537.36" etag="-nqYwzufanJ_vqVUKTtq" version="15.8.8" type="github">
  <diagram name="Page-1" id="ff44883e-f642-bcb2-894b-16b3d25a3f0b">
    <mxGraphModel dx="1689" dy="1046" grid="1" gridSize="10" guides="1" tooltips="1" connect="1" arrows="1" fold="1" page="1" pageScale="1.5" pageWidth="1169" pageHeight="826" background="none" math="0" shadow="0">
      <root>
        <mxCell id="0" style=";html=1;" />
        <mxCell id="1" style=";html=1;" parent="0" />
        <mxCell id="f0bcc99304e6f5a-9" style="edgeStyle=none;curved=1;html=1;startSize=10;endArrow=classic;endFill=1;endSize=10;strokeColor=#000000;strokeWidth=2;fontSize=12;entryX=0;entryY=0.75;entryDx=0;entryDy=0;exitX=0.8;exitY=0.25;exitDx=0;exitDy=0;exitPerimeter=0;" parent="1" source="tORRcVsHqnbC5IF7F5QV-3" target="tORRcVsHqnbC5IF7F5QV-4" edge="1">
          <mxGeometry relative="1" as="geometry">
            <mxPoint x="570" y="590" as="targetPoint" />
          </mxGeometry>
        </mxCell>
        <mxCell id="f0bcc99304e6f5a-16" style="edgeStyle=none;curved=1;html=1;startSize=10;endFill=1;endSize=10;strokeWidth=2;fontSize=12;" parent="1" source="f0bcc99304e6f5a-1" target="tORRcVsHqnbC5IF7F5QV-6" edge="1">
          <mxGeometry relative="1" as="geometry">
            <mxPoint x="560" y="750" as="targetPoint" />
          </mxGeometry>
        </mxCell>
        <mxCell id="f0bcc99304e6f5a-1" value="Presentacion Observatorio Cultural" style="ellipse;whiteSpace=wrap;html=1;rounded=0;shadow=1;strokeWidth=4;fontSize=30;align=center;fillColor=#f5f5f5;fontColor=#333333;strokeColor=#666666;" parent="1" vertex="1">
          <mxGeometry x="140" y="550" width="210" height="80" as="geometry" />
        </mxCell>
        <mxCell id="f0bcc99304e6f5a-10" style="edgeStyle=none;curved=1;html=1;startSize=10;endFill=1;endSize=10;strokeWidth=2;fontSize=12;entryX=0;entryY=0.158;entryDx=0;entryDy=0;entryPerimeter=0;" parent="1" target="tORRcVsHqnbC5IF7F5QV-9" edge="1">
          <mxGeometry relative="1" as="geometry">
            <mxPoint x="650" y="590" as="sourcePoint" />
            <mxPoint x="780" y="590" as="targetPoint" />
          </mxGeometry>
        </mxCell>
        <mxCell id="f0bcc99304e6f5a-11" style="edgeStyle=none;curved=1;html=1;startSize=10;endFill=1;endSize=10;strokeWidth=2;fontSize=12;exitX=0.99;exitY=0.433;exitDx=0;exitDy=0;exitPerimeter=0;entryX=0;entryY=0.5;entryDx=0;entryDy=0;" parent="1" source="tORRcVsHqnbC5IF7F5QV-4" target="tORRcVsHqnbC5IF7F5QV-5" edge="1">
          <mxGeometry relative="1" as="geometry">
            <mxPoint x="780" y="370" as="targetPoint" />
          </mxGeometry>
        </mxCell>
        <mxCell id="tORRcVsHqnbC5IF7F5QV-3" value="&lt;font face=&quot;Verdana&quot;&gt;&lt;span style=&quot;font-size: 19px&quot;&gt;PresentaciÃ³n&lt;/span&gt;&lt;br&gt;&lt;span style=&quot;font-size: 19px&quot;&gt;OBSERVATORIO CULTURAL OLAVARRIA&lt;/span&gt;&lt;/font&gt;" style="rounded=1;whiteSpace=wrap;html=1;" vertex="1" parent="1">
          <mxGeometry x="130" y="540" width="250" height="120" as="geometry" />
        </mxCell>
        <mxCell id="tORRcVsHqnbC5IF7F5QV-4" value="INVESTIGACION" style="rounded=1;whiteSpace=wrap;html=1;fontFamily=Verdana;fontSize=19;" vertex="1" parent="1">
          <mxGeometry x="500" y="380" width="210" height="90" as="geometry" />
        </mxCell>
        <mxCell id="tORRcVsHqnbC5IF7F5QV-5" value="ANALISIS DE LA INFORMACION" style="rounded=1;whiteSpace=wrap;html=1;fontFamily=Verdana;fontSize=19;" vertex="1" parent="1">
          <mxGeometry x="820" y="420" width="210" height="95" as="geometry" />
        </mxCell>
        <mxCell id="tORRcVsHqnbC5IF7F5QV-6" value="CREACCION PERFILES RRSS" style="rounded=1;whiteSpace=wrap;html=1;fontFamily=Verdana;fontSize=19;" vertex="1" parent="1">
          <mxGeometry x="500" y="542.5" width="210" height="95" as="geometry" />
        </mxCell>
        <mxCell id="tORRcVsHqnbC5IF7F5QV-7" value="CREACCION PAGINA WEB" style="rounded=1;whiteSpace=wrap;html=1;fontFamily=Verdana;fontSize=19;" vertex="1" parent="1">
          <mxGeometry x="480" y="750" width="210" height="95" as="geometry" />
        </mxCell>
        <mxCell id="tORRcVsHqnbC5IF7F5QV-8" style="edgeStyle=none;curved=1;html=1;startSize=10;endFill=1;endSize=10;strokeWidth=2;fontSize=12;exitX=0.75;exitY=1;exitDx=0;exitDy=0;" edge="1" parent="1" source="tORRcVsHqnbC5IF7F5QV-3">
          <mxGeometry relative="1" as="geometry">
            <mxPoint x="360" y="600" as="sourcePoint" />
            <mxPoint x="480" y="770" as="targetPoint" />
          </mxGeometry>
        </mxCell>
        <mxCell id="tORRcVsHqnbC5IF7F5QV-9" value="DIFUSION" style="rounded=1;whiteSpace=wrap;html=1;fontFamily=Verdana;fontSize=19;" vertex="1" parent="1">
          <mxGeometry x="740" y="640" width="210" height="95" as="geometry" />
        </mxCell>
        <mxCell id="tORRcVsHqnbC5IF7F5QV-10" value="PRESENTACION DE INFORME" style="rounded=1;whiteSpace=wrap;html=1;fontFamily=Verdana;fontSize=19;" vertex="1" parent="1">
          <mxGeometry x="1140" y="540" width="210" height="95" as="geometry" />
        </mxCell>
        <mxCell id="tORRcVsHqnbC5IF7F5QV-11" style="edgeStyle=none;curved=1;html=1;startSize=10;endFill=1;endSize=10;strokeWidth=2;fontSize=12;exitX=1;exitY=0.5;exitDx=0;exitDy=0;entryX=0;entryY=0;entryDx=0;entryDy=0;" edge="1" parent="1" source="tORRcVsHqnbC5IF7F5QV-5" target="tORRcVsHqnbC5IF7F5QV-10">
          <mxGeometry relative="1" as="geometry">
            <mxPoint x="717.9000000000001" y="428.97" as="sourcePoint" />
            <mxPoint x="790" y="427.5" as="targetPoint" />
          </mxGeometry>
        </mxCell>
        <mxCell id="tORRcVsHqnbC5IF7F5QV-12" style="edgeStyle=none;curved=1;html=1;startSize=10;endFill=1;endSize=10;strokeWidth=2;fontSize=12;entryX=0.048;entryY=0.947;entryDx=0;entryDy=0;entryPerimeter=0;" edge="1" parent="1" source="tORRcVsHqnbC5IF7F5QV-7" target="tORRcVsHqnbC5IF7F5QV-9">
          <mxGeometry relative="1" as="geometry">
            <mxPoint x="660" y="600" as="sourcePoint" />
            <mxPoint x="747.06" y="659.0250000000001" as="targetPoint" />
          </mxGeometry>
        </mxCell>
        <mxCell id="tORRcVsHqnbC5IF7F5QV-13" style="edgeStyle=none;curved=1;html=1;startSize=10;endFill=1;endSize=10;strokeWidth=2;fontSize=12;exitX=1.014;exitY=0.611;exitDx=0;exitDy=0;entryX=0.25;entryY=1;entryDx=0;entryDy=0;exitPerimeter=0;" edge="1" parent="1" source="tORRcVsHqnbC5IF7F5QV-7" target="tORRcVsHqnbC5IF7F5QV-10">
          <mxGeometry relative="1" as="geometry">
            <mxPoint x="1000" y="427.5" as="sourcePoint" />
            <mxPoint x="1150" y="550" as="targetPoint" />
            <Array as="points">
              <mxPoint x="1040" y="780" />
            </Array>
          </mxGeometry>
        </mxCell>
        <mxCell id="tORRcVsHqnbC5IF7F5QV-15" style="edgeStyle=none;curved=1;html=1;startSize=10;endFill=1;endSize=10;strokeWidth=2;fontSize=12;exitX=1;exitY=0;exitDx=0;exitDy=0;entryX=-0.043;entryY=0.705;entryDx=0;entryDy=0;entryPerimeter=0;" edge="1" parent="1" source="tORRcVsHqnbC5IF7F5QV-9" target="tORRcVsHqnbC5IF7F5QV-10">
          <mxGeometry relative="1" as="geometry">
            <mxPoint x="1000" y="427.5" as="sourcePoint" />
            <mxPoint x="1150" y="550" as="targetPoint" />
          </mxGeometry>
        </mxCell>
        <mxCell id="tORRcVsHqnbC5IF7F5QV-16" style="edgeStyle=none;curved=1;html=1;startSize=10;endFill=1;endSize=10;strokeWidth=2;fontSize=12;entryX=1;entryY=0;entryDx=0;entryDy=0;exitX=0.5;exitY=0;exitDx=0;exitDy=0;" edge="1" parent="1" source="tORRcVsHqnbC5IF7F5QV-10" target="tORRcVsHqnbC5IF7F5QV-4">
          <mxGeometry relative="1" as="geometry">
            <mxPoint x="1430" y="310" as="sourcePoint" />
            <mxPoint x="1150" y="549.9999999999998" as="targetPoint" />
            <Array as="points">
              <mxPoint x="1020" y="220" />
            </Array>
          </mxGeometry>
        </mxCell>
      </root>
    </mxGraphModel>
  </diagram>
</mxfile>
